# xmcd CD database file
#
# Track frame offsets:
#	150
#	26955
#	69329
#	87068
#	102292
#	116428
#	131202
#	178776
#	203731
#	244081
#	288181
#	294105
#
# Disc length: 4164 seconds
#
# Revision: 1
# Processed by: cddbd v1.5.2PL0 Copyright (c) Steve Scherf et al.
# Submitted via: CDex 1.51
#
DISCID=a710420c
DTITLE=Various Artist - BEGINNER JAZZ
DYEAR=2012
DGENRE=Jazz
TTITLE0='Round About Midnight (Miles Davis)
TTITLE1=A Night In Tunisia (Art Blakey)
TTITLE2=Happy Feeling (Barney Kessel)
TTITLE3=Body And Soul (Oscar Peterson)
TTITLE4=Strange Fruit (Billie Holiday)
TTITLE5=Don't Worry 'bout Me (Erroll Garner)
TTITLE6=Pithecanthropus Erectus (Charles Mingus)
TTITLE7=But Beautiful (Freddie Hubbard)
TTITLE8=Sonnymoon For Two (Sonny Rollins)
TTITLE9=Caravan (Herbie Mann)
TTITLE10=Waltz For Debby (Bill Evans)
TTITLE11=Lullaby Of Birdland (Saral Vaughan)
EXTD=YEAR: 2012
EXTT0=
EXTT1=
EXTT2=
EXTT3=
EXTT4=
EXTT5=
EXTT6=
EXTT7=
EXTT8=
EXTT9=
EXTT10=
EXTT11=
PLAYORDER=
